<?xml version="1.0" encoding="utf-8"?>
<!-- Generator: Adobe Illustrator 25.2.1, SVG Export Plug-In . SVG Version: 6.00 Build 0)  -->
<svg version="1.1" id="Layer_1" xmlns="http://www.w3.org/2000/svg" xmlns:xlink="http://www.w3.org/1999/xlink" x="0px" y="0px"
	 viewBox="0 0 24 24" style="enable-background:new 0 0 24 24;" xml:space="preserve">
<g>
	<g>
		<path d="M12,24C5.4,24,0,18.6,0,12S5.4,0,12,0s12,5.4,12,12S18.6,24,12,24z M12,1.4C6.2,1.4,1.4,6.2,1.4,12S6.2,22.6,12,22.6
			S22.6,17.8,22.6,12S17.8,1.4,12,1.4z"/>
	</g>
	<g>
		<path d="M3.9,14.6c0-4,2.1-5.6,4.7-5.6c3.6,0,4.4,3.3,6.5,3.3c1.9,0,2.3-1.6,2.3-3l0.2-0.2h2.3l0.2,0.2c0,4-2.1,5.6-4.7,5.6
			c-3.6,0-4.4-3.3-6.5-3.3c-1.9,0-2.3,1.6-2.3,3l-0.2,0.2H4.1L3.9,14.6z"/>
	</g>
</g>
</svg>
