<?xml version="1.0" encoding="utf-8"?>
<!-- Generator: Adobe Illustrator 25.2.1, SVG Export Plug-In . SVG Version: 6.00 Build 0)  -->
<svg version="1.1" id="Layer_1" xmlns="http://www.w3.org/2000/svg" xmlns:xlink="http://www.w3.org/1999/xlink" x="0px" y="0px"
	 viewBox="0 0 24 24" style="enable-background:new 0 0 24 24;" xml:space="preserve">
<g>
	<path d="M22.5,13v9.5H13V13H22.5 M22.6,11.5h-9.6c-0.8,0-1.4,0.6-1.4,1.4v9.6c0,0.8,0.6,1.4,1.4,1.4h9.6c0.8,0,1.4-0.6,1.4-1.4
		v-9.6C24,12.1,23.4,11.5,22.6,11.5L22.6,11.5z"/>
	<path d="M6.2,11H1.5V1.5H11v4.7h1.5V1.4c0-0.8-0.6-1.4-1.4-1.4H1.4C0.6,0,0,0.6,0,1.4v9.6c0,0.8,0.6,1.4,1.4,1.4h4.8V11z"/>
	<path d="M12.2,16.8h-5V7.2h9.5V12h1.5V7.2c0-0.8-0.6-1.4-1.4-1.4H7.2c-0.8,0-1.4,0.6-1.4,1.4v9.6c0,0.8,0.6,1.4,1.4,1.4h5V16.8z"/>
</g>
</svg>
