<?xml version="1.0" encoding="utf-8"?>
<!-- Generator: Adobe Illustrator 25.2.1, SVG Export Plug-In . SVG Version: 6.00 Build 0)  -->
<svg version="1.1" id="Layer_1" xmlns="http://www.w3.org/2000/svg" xmlns:xlink="http://www.w3.org/1999/xlink" x="0px" y="0px"
	 viewBox="0 0 24 24" style="enable-background:new 0 0 24 24;" xml:space="preserve">
<g>
	<path d="M4.9,17.2H2.4c-0.5,0-0.9-0.4-0.9-0.9V2.4c0-0.5,0.4-0.9,0.9-0.9h13.9c0.5,0,0.9,0.4,0.9,0.9v2.1h1.5V2.4
		c0-1.3-1.1-2.4-2.4-2.4H2.4C1.1,0,0,1.1,0,2.4v13.9c0,1.3,1.1,2.4,2.4,2.4h2.5V17.2z"/>
	<g>
		<g>
			<path d="M21.4,5.6c0.6,0,1.1,0.5,1.1,1.1v14.7c0,0.6-0.5,1.1-1.1,1.1H6.7c-0.6,0-1.1-0.5-1.1-1.1V6.7c0-0.6,0.5-1.1,1.1-1.1H21.4
				 M21.4,4.1H6.7c-1.4,0-2.6,1.2-2.6,2.6v14.7c0,1.4,1.2,2.6,2.6,2.6h14.7c1.4,0,2.6-1.2,2.6-2.6V6.7C24,5.3,22.8,4.1,21.4,4.1
				L21.4,4.1z"/>
		</g>
		<path d="M8.6,14.1c0-1,0.2-1.9,0.7-2.8c0.5-0.8,1.2-1.5,2-2c0.8-0.5,1.8-0.7,2.8-0.7s1.9,0.2,2.8,0.7c0.8,0.5,1.5,1.2,2,2
			c0.5,0.8,0.8,1.8,0.7,2.8c0,1-0.3,1.9-0.7,2.8c-0.5,0.8-1.1,1.5-2,2c-0.9,0.5-1.8,0.7-2.8,0.7c-1,0-1.9-0.2-2.8-0.7
			c-0.9-0.5-1.5-1.2-2-2C8.9,16,8.6,15.1,8.6,14.1z M11.3,15.7c0,0.1,0,0.2,0.1,0.3l0.6,0.6c0.1,0.1,0.2,0.1,0.3,0.1
			c0.1,0,0.2,0,0.3-0.1l1.3-1.3l1.3,1.3c0.1,0.1,0.2,0.1,0.3,0.1c0.1,0,0.2,0,0.3-0.1l0.7-0.6c0.1-0.1,0.1-0.2,0.1-0.3
			c0-0.1,0-0.2-0.1-0.3l-1.3-1.3l1.3-1.3c0.1-0.1,0.1-0.2,0.1-0.3c0-0.1,0-0.2-0.1-0.3L16,11.5c-0.1-0.1-0.2-0.1-0.3-0.1
			c-0.1,0-0.2,0-0.3,0.1l-1.3,1.3l-1.3-1.3c-0.1-0.1-0.2-0.1-0.3-0.1c-0.1,0-0.2,0-0.3,0.1l-0.6,0.6c-0.1,0.1-0.1,0.2-0.1,0.3
			c0,0.1,0,0.2,0.1,0.3l1.3,1.3l-1.3,1.3C11.4,15.4,11.3,15.5,11.3,15.7z"/>
	</g>
</g>
</svg>
