<?xml version="1.0" encoding="utf-8"?>
<!-- Generator: Adobe Illustrator 25.2.1, SVG Export Plug-In . SVG Version: 6.00 Build 0)  -->
<svg version="1.1" id="Layer_1" xmlns="http://www.w3.org/2000/svg" xmlns:xlink="http://www.w3.org/1999/xlink" x="0px" y="0px"
	 viewBox="0 0 24 24" style="enable-background:new 0 0 24 24;" xml:space="preserve">
<g>
	<path d="M12,2.1c-5.5,0-9.9,4.5-9.9,9.9c0,5.5,4.5,9.9,9.9,9.9c5.5,0,9.9-4.5,9.9-9.9C22,6.5,17.5,2.1,12,2.1z M20.9,11.5h-8.1
		l3.9-7.1C19,5.9,20.7,8.5,20.9,11.5z M15.7,3.9l-3.8,6.9L8.2,4c1.2-0.6,2.5-0.9,3.8-0.9C13.3,3.1,14.6,3.4,15.7,3.9z M7.3,4.5
		l3.8,7H3.2C3.3,8.5,4.9,6,7.3,4.5z M3.2,12.5H11l-3.8,6.9C4.9,18,3.3,15.4,3.2,12.5z M8.1,20l3.8-7l3.8,7c-1.1,0.5-2.4,0.8-3.7,0.8
		C10.6,20.9,9.3,20.6,8.1,20z M16.7,19.6l-3.8-7h8C20.7,15.5,19.1,18.1,16.7,19.6z"/>
	<path d="M1.5,14.7c-0.5-0.3-0.8-0.7-1.1-1.1C0.1,13.1,0,12.6,0,12c0-0.6,0.1-1.1,0.4-1.5C0.7,10,1.1,9.6,1.5,9.3
		c0.5-0.3,1-0.4,1.5-0.4c0.6,0,1.1,0.1,1.5,0.4c0.5,0.3,0.8,0.7,1.1,1.1c0.3,0.5,0.4,1,0.4,1.5c0,0.6-0.1,1.1-0.4,1.5
		c-0.3,0.5-0.7,0.8-1.1,1.1c-0.5,0.3-1,0.4-1.5,0.4C2.5,15.1,2,15,1.5,14.7z"/>
	<path d="M6,6.7C5.5,6.4,5.2,6,4.9,5.5C4.6,5.1,4.5,4.6,4.5,4s0.1-1.1,0.4-1.5S5.5,1.6,6,1.3c0.5-0.3,1-0.4,1.5-0.4
		c0.6,0,1.1,0.1,1.5,0.4C9.6,1.6,9.9,2,10.2,2.5s0.4,1,0.4,1.5c0,0.6-0.1,1.1-0.4,1.5S9.6,6.4,9.1,6.7c-0.5,0.3-1,0.4-1.5,0.4
		S6.5,6.9,6,6.7z"/>
	<path d="M6,22.7c-0.5-0.3-0.8-0.7-1.1-1.1s-0.4-1-0.4-1.5c0-0.6,0.1-1.1,0.4-1.5C5.2,18,5.5,17.6,6,17.3c0.5-0.3,1-0.4,1.5-0.4
		c0.6,0,1.1,0.1,1.5,0.4s0.8,0.7,1.1,1.1c0.3,0.5,0.4,1,0.4,1.5c0,0.6-0.1,1.1-0.4,1.5c-0.3,0.5-0.7,0.8-1.1,1.1s-1,0.4-1.5,0.4
		S6.5,22.9,6,22.7z"/>
	<path d="M10.4,14.7C10,14.4,9.6,14,9.3,13.5c-0.3-0.5-0.4-1-0.4-1.5c0-0.6,0.1-1.1,0.4-1.5C9.6,10,10,9.6,10.4,9.3
		c0.5-0.3,1-0.4,1.5-0.4s1.1,0.1,1.5,0.4c0.5,0.3,0.8,0.7,1.1,1.1c0.3,0.5,0.4,1,0.4,1.5c0,0.6-0.1,1.1-0.4,1.5
		c-0.3,0.5-0.7,0.8-1.1,1.1c-0.5,0.3-1,0.4-1.5,0.4S10.9,15,10.4,14.7z"/>
	<path d="M14.9,6.7c-0.5-0.3-0.8-0.7-1.1-1.1c-0.3-0.5-0.4-1-0.4-1.5c0-0.6,0.1-1.1,0.4-1.5c0.3-0.5,0.7-0.8,1.1-1.1
		c0.5-0.3,1-0.4,1.5-0.4c0.6,0,1.1,0.1,1.5,0.4s0.8,0.7,1.1,1.1c0.3,0.5,0.4,1,0.4,1.5c0,0.6-0.1,1.1-0.4,1.5
		C18.9,6,18.5,6.4,18,6.7s-1,0.4-1.5,0.4C15.9,7.1,15.4,7,14.9,6.7z"/>
	<path d="M14.9,22.6c-0.5-0.3-0.8-0.7-1.1-1.1c-0.3-0.5-0.4-1-0.4-1.5c0-0.6,0.1-1.1,0.4-1.5c0.3-0.5,0.7-0.8,1.1-1.1s1-0.4,1.5-0.4
		c0.6,0,1.1,0.1,1.5,0.4c0.5,0.3,0.8,0.7,1.1,1.1c0.3,0.5,0.4,1,0.4,1.5c0,0.6-0.1,1.1-0.4,1.5c-0.3,0.5-0.7,0.8-1.1,1.1
		c-0.5,0.3-1,0.4-1.5,0.4C15.9,23.1,15.4,22.9,14.9,22.6z"/>
	<path d="M19.4,14.7c-0.5-0.3-0.8-0.7-1.1-1.1c-0.3-0.5-0.4-1-0.4-1.5c0-0.6,0.1-1.1,0.4-1.5s0.7-0.8,1.1-1.1c0.5-0.3,1-0.4,1.5-0.4
		c0.6,0,1.1,0.1,1.5,0.4c0.5,0.3,0.8,0.7,1.1,1.1s0.4,1,0.4,1.5c0,0.6-0.1,1.1-0.4,1.5c-0.3,0.5-0.7,0.8-1.1,1.1
		c-0.5,0.3-1,0.4-1.5,0.4C20.3,15.1,19.8,14.9,19.4,14.7z"/>
</g>
</svg>
