<?xml version="1.0" encoding="utf-8"?>
<!-- Generator: Adobe Illustrator 25.2.1, SVG Export Plug-In . SVG Version: 6.00 Build 0)  -->
<svg version="1.1" id="Layer_1" xmlns="http://www.w3.org/2000/svg" xmlns:xlink="http://www.w3.org/1999/xlink" x="0px" y="0px"
	 viewBox="0 0 24 24" style="enable-background:new 0 0 24 24;" xml:space="preserve">
<g>
	<g>
		<path d="M1,23.1c-0.7-0.6-1-1.5-1-2.6V7.9c0-1.2,0.3-2,1-2.6s1.7-0.9,3-0.9h15.9c1.3,0,2.3,0.3,3,0.9c0.7,0.6,1,1.5,1,2.6v12.6
			c0,1.2-0.3,2-1,2.6c-0.7,0.6-1.6,0.9-2.8,0.9H4.1C2.7,24,1.7,23.7,1,23.1z M20.2,22.5c0.6,0,1.1-0.2,1.5-0.5
			c0.4-0.4,0.6-0.9,0.6-1.6V8c0-0.7-0.2-1.2-0.6-1.6c-0.4-0.4-1-0.5-1.8-0.5H4.1c-0.8,0-1.4,0.2-1.8,0.5S1.7,7.3,1.7,8v12.4
			c0,0.7,0.2,1.2,0.6,1.6s1,0.5,1.8,0.5H20.2z M7.2,2.3c0.5-0.7,1.1-1.2,1.9-1.7S11,0,12,0c1.1,0,2,0.2,2.8,0.6s1.5,1,1.9,1.7
			s0.7,1.4,0.7,2.2h-1.7c0-0.6-0.2-1.1-0.5-1.5S14.5,2.1,14,1.8c-0.6-0.3-1.2-0.4-2-0.4s-1.4,0.1-2,0.4S9,2.5,8.7,3
			C8.4,3.5,8.2,4,8.2,4.5H6.5C6.5,3.7,6.8,3,7.2,2.3z"/>
	</g>
	<g>
		<path d="M3.1,10.1c0-0.1,0-0.3,0.1-0.4L4,9c0.1-0.1,0.2-0.2,0.4-0.2c0.1,0,0.3,0.1,0.4,0.2l1.6,1.6L9.9,7c0.1-0.1,0.2-0.2,0.4-0.2
			c0.1,0,0.3,0.1,0.4,0.2l0.7,0.7c0.1,0.1,0.1,0.2,0.1,0.4c0,0.1,0,0.3-0.1,0.4l-4.7,4.7c-0.1,0.1-0.2,0.1-0.4,0.1
			c-0.1,0-0.3,0-0.4-0.1l-2.7-2.7C3.2,10.4,3.1,10.2,3.1,10.1z"/>
	</g>
	<path d="M5.3,16.4v-1c0-0.1,0-0.3,0.1-0.4c0.1-0.1,0.2-0.1,0.4-0.1h1.9c0.1,0,0.3,0,0.4,0.1c0.1,0.1,0.1,0.2,0.1,0.4v1
		c0,0.1-0.1,0.3-0.1,0.4c-0.1,0.1-0.2,0.1-0.4,0.1H5.8c-0.1,0-0.3,0-0.4-0.1C5.4,16.7,5.3,16.6,5.3,16.4z M5.3,20.2v-1
		c0-0.1,0-0.3,0.1-0.4c0.1-0.1,0.2-0.1,0.4-0.1h1.9c0.1,0,0.3,0,0.4,0.1c0.1,0.1,0.1,0.2,0.1,0.4v1c0,0.1-0.1,0.3-0.1,0.3
		c-0.1,0.1-0.2,0.1-0.4,0.1H5.8c-0.1,0-0.3,0-0.4-0.1C5.4,20.4,5.3,20.3,5.3,20.2z M10,12.7v-1c0-0.1,0-0.3,0.1-0.4
		c0.1-0.1,0.2-0.2,0.4-0.2h8.6c0.1,0,0.3,0.1,0.4,0.2c0.1,0.1,0.1,0.2,0.1,0.4v1c0,0.1,0,0.3-0.1,0.4c-0.1,0.1-0.2,0.1-0.4,0.1h-8.6
		c-0.1,0-0.3,0-0.4-0.1C10.1,12.9,10,12.8,10,12.7z M10,16.4v-1c0-0.1,0-0.3,0.1-0.4c0.1-0.1,0.2-0.1,0.4-0.1h8.6
		c0.1,0,0.3,0,0.4,0.1c0.1,0.1,0.1,0.2,0.1,0.4v1c0,0.1,0,0.3-0.1,0.4c-0.1,0.1-0.2,0.1-0.4,0.1h-8.6c-0.1,0-0.3,0-0.4-0.1
		C10.1,16.7,10,16.6,10,16.4z M10,20.2v-1c0-0.1,0-0.3,0.1-0.4c0.1-0.1,0.2-0.1,0.4-0.1h8.6c0.1,0,0.3,0,0.4,0.1
		c0.1,0.1,0.1,0.2,0.1,0.4v1c0,0.1,0,0.3-0.1,0.3c-0.1,0.1-0.2,0.1-0.4,0.1h-8.6c-0.1,0-0.3,0-0.4-0.1C10.1,20.4,10,20.3,10,20.2z"
		/>
</g>
</svg>
