<?xml version="1.0" encoding="utf-8"?>
<!-- Generator: Adobe Illustrator 25.2.1, SVG Export Plug-In . SVG Version: 6.00 Build 0)  -->
<svg version="1.1" id="Layer_1" xmlns="http://www.w3.org/2000/svg" xmlns:xlink="http://www.w3.org/1999/xlink" x="0px" y="0px"
	 viewBox="0 0 24 24" style="enable-background:new 0 0 24 24;" xml:space="preserve">
<g>
	<path d="M0,10c0-1.8,0.5-3.5,1.6-5C2.7,3.5,4.1,2.2,6,1.3C7.8,0.4,9.8,0,12,0s4.2,0.4,6,1.3c1.8,0.9,3.3,2.1,4.4,3.6
		c1.1,1.5,1.6,3.2,1.6,5c0,1.8-0.5,3.5-1.6,5c-1.1,1.5-2.5,2.7-4.4,3.6c-1.8,0.9-3.8,1.3-6,1.3c-0.6,0-1.3,0-1.9-0.1
		c-1.8,1.8-3.8,3.1-6.2,3.8C3.5,23.8,3,23.9,2.4,24H2.3c-0.1,0-0.2-0.1-0.4-0.2c-0.1-0.1-0.2-0.3-0.2-0.4v0c0,0,0-0.1,0-0.2
		c0-0.1,0-0.1,0-0.2c0,0,0-0.1,0-0.1l0.3-0.4c0.1-0.1,0.2-0.3,0.4-0.5L3,21.3c0.1-0.2,0.2-0.4,0.4-0.6c0.2-0.3,0.3-0.5,0.4-0.8
		c0.1-0.3,0.2-0.6,0.4-0.9l0.4-1.2c-1.4-0.9-2.5-2.1-3.3-3.4S0,11.6,0,10z M1.7,10c0,1.2,0.3,2.3,1,3.3c0.6,1.1,1.5,2,2.7,2.7
		l1.2,0.8l-0.4,1.5c-0.2,0.9-0.5,1.8-0.9,2.7c1.4-0.7,2.6-1.6,3.7-2.7l0.6-0.6l0.7,0.1C10.9,18,11.5,18,12,18c1.8,0,3.5-0.4,5.1-1.1
		s2.8-1.7,3.8-2.9c0.9-1.2,1.4-2.6,1.4-4c0-1.4-0.5-2.7-1.4-4c-1-1.2-2.2-2.2-3.8-2.9C15.6,2.4,13.9,2,12,2c-1.9,0-3.6,0.4-5.1,1.1
		S4.1,4.8,3.1,6C2.2,7.3,1.7,8.6,1.7,10z"/>
	<g>
		<path d="M6.2,7.1V6.3l6.1-2.4l6.1,2.4v0.8h-0.8c0,0.1,0,0.2-0.1,0.3c-0.1,0.1-0.2,0.1-0.3,0.1H7.4c-0.1,0-0.2,0-0.3-0.1
			C7,7.3,7,7.2,7,7.1H6.2z M6.2,13.9c0-0.1,0-0.2,0.1-0.3s0.2-0.1,0.3-0.1h11.2c0.1,0,0.2,0,0.3,0.1c0.1,0.1,0.1,0.2,0.1,0.3v0.8
			H6.2V13.9z M7,13.1v-0.4c0-0.1,0-0.2,0.1-0.3c0.1-0.1,0.2-0.1,0.3-0.1h0.4V7.9h1.6v4.4h0.8V7.9h1.6v4.4h0.8V7.9h1.6v4.4h0.8V7.9
			h1.6v4.4h0.4c0.1,0,0.2,0,0.3,0.1c0.1,0.1,0.1,0.2,0.1,0.3v0.4H7z"/>
	</g>
</g>
</svg>
