<?xml version="1.0" encoding="utf-8"?>
<!-- Generator: Adobe Illustrator 25.2.1, SVG Export Plug-In . SVG Version: 6.00 Build 0)  -->
<svg version="1.1" id="Layer_1" xmlns="http://www.w3.org/2000/svg" xmlns:xlink="http://www.w3.org/1999/xlink" x="0px" y="0px"
	 viewBox="0 0 24 24" style="enable-background:new 0 0 24 24;" xml:space="preserve">
<g>
	<path d="M0,7.2V5.6l12-4.8l12,4.8v1.6h-1.6c0,0.2-0.1,0.4-0.2,0.6C22,7.9,21.8,8,21.5,8H2.5C2.2,8,2,7.9,1.9,7.8
		C1.7,7.6,1.6,7.4,1.6,7.2H0z M0,21.6c0-0.2,0.1-0.4,0.2-0.6s0.4-0.2,0.6-0.2h22.3c0.2,0,0.4,0.1,0.6,0.2c0.2,0.2,0.2,0.4,0.2,0.6
		v1.6H0V21.6z M1.6,20v-0.8c0-0.2,0.1-0.4,0.3-0.6c0.2-0.2,0.4-0.2,0.6-0.2h0.7V8.8h3.2v9.6H8V8.8h3.2v9.6h1.6V8.8H16v9.6h1.6V8.8
		h3.2v9.6h0.7c0.2,0,0.4,0.1,0.6,0.2c0.2,0.1,0.3,0.3,0.2,0.6V20H1.6z"/>
</g>
</svg>
