<?xml version="1.0" encoding="utf-8"?>
<!-- Generator: Adobe Illustrator 25.2.1, SVG Export Plug-In . SVG Version: 6.00 Build 0)  -->
<svg version="1.1" id="Layer_1" xmlns="http://www.w3.org/2000/svg" xmlns:xlink="http://www.w3.org/1999/xlink" x="0px" y="0px"
	 viewBox="0 0 24 24" style="enable-background:new 0 0 24 24;" xml:space="preserve">
<g>
	<path d="M0,17.4V6.6c0-1.2,0.4-2.3,1.3-3.1s1.9-1.3,3.1-1.3h4.9c0.1,0,0.3,0,0.4,0.1c0.1,0.1,0.1,0.2,0.1,0.4l0,0.3
		c0,0.2,0,0.3,0,0.4L9.8,3.8c0,0.1-0.1,0.2-0.1,0.3C9.6,4.1,9.4,4.2,9.3,4.2H4.4c-0.7,0-1.3,0.2-1.7,0.7C2.2,5.4,2,6,1.9,6.6v10.8
		c0,0.7,0.2,1.3,0.7,1.7c0.5,0.5,1.1,0.7,1.7,0.7h4.9c0.1,0,0.2,0,0.2,0.1c0,0,0.1,0.1,0.1,0.1c0.1,0,0.1,0.1,0.1,0.1
		c0,0.1,0,0.1,0,0.2l0,0.3c0,0.2,0,0.3,0,0.4l-0.1,0.4c0,0.2-0.1,0.3-0.1,0.3c-0.1,0-0.2,0.1-0.3,0.1H4.4c-1.2,0-2.3-0.4-3.1-1.3
		S0,18.6,0,17.4z M5.9,14.9V9.1c0-0.3,0.1-0.5,0.3-0.7c0.2-0.2,0.4-0.3,0.7-0.3h6.9V3.7c0-0.3,0.1-0.5,0.3-0.7
		c0.2-0.2,0.4-0.3,0.7-0.3c0.3,0,0.5,0.1,0.7,0.3l8.3,8.3c0.2,0.2,0.3,0.4,0.3,0.7c0,0.3-0.1,0.5-0.3,0.7L15.4,21
		c-0.2,0.2-0.4,0.3-0.7,0.3c-0.3,0-0.5-0.1-0.7-0.3c-0.2-0.2-0.3-0.4-0.3-0.7v-4.4H6.9c-0.3,0-0.5-0.1-0.7-0.3
		C6,15.4,5.9,15.2,5.9,14.9z"/>
</g>
</svg>
