<?xml version="1.0" encoding="utf-8"?>
<!-- Generator: Adobe Illustrator 25.2.1, SVG Export Plug-In . SVG Version: 6.00 Build 0)  -->
<svg version="1.1" id="Layer_1" xmlns="http://www.w3.org/2000/svg" xmlns:xlink="http://www.w3.org/1999/xlink" x="0px" y="0px"
	 viewBox="0 0 24 24" style="enable-background:new 0 0 24 24;" xml:space="preserve">
<g>
	<g>
		<path d="M22.1,24H5.4c-0.5,0-0.9-0.4-0.9-0.9v-19c0-0.5,0.4-0.9,0.9-0.9h16.6c0.5,0,0.9,0.4,0.9,0.9v19C22.9,23.6,22.6,24,22.1,24
			z M6,22.5h15.5V4.8H6V22.5z"/>
	</g>
	<path d="M8.3,9.1V8.2c0-0.1,0-0.2,0.1-0.3c0.1-0.1,0.2-0.1,0.3-0.1h1.8c0.1,0,0.2,0,0.3,0.1C11,8,11,8.1,11,8.2v0.9
		c0,0.1,0,0.2-0.1,0.3c-0.1,0.1-0.2,0.1-0.3,0.1H8.8c-0.1,0-0.2,0-0.3-0.1C8.4,9.4,8.4,9.2,8.3,9.1z M8.3,12.5v-0.9
		c0-0.1,0-0.2,0.1-0.3c0.1-0.1,0.2-0.1,0.3-0.1h1.8c0.1,0,0.2,0,0.3,0.1c0.1,0.1,0.1,0.2,0.1,0.3v0.9c0,0.1,0,0.2-0.1,0.3
		c-0.1,0.1-0.2,0.1-0.3,0.1H8.8c-0.1,0-0.2,0-0.3-0.1C8.4,12.8,8.4,12.7,8.3,12.5z M8.3,15.9V15c0-0.1,0-0.2,0.1-0.3
		c0.1-0.1,0.2-0.1,0.3-0.1h1.8c0.1,0,0.2,0,0.3,0.1C11,14.8,11,14.9,11,15v0.9c0,0.1,0,0.2-0.1,0.3c-0.1,0.1-0.2,0.1-0.3,0.1H8.8
		c-0.1,0-0.2,0-0.3-0.1C8.4,16.2,8.4,16,8.3,15.9z M12.6,9.1V8.2c0-0.1,0-0.2,0.1-0.3s0.2-0.1,0.3-0.1h5.8c0.1,0,0.2,0,0.3,0.1
		s0.1,0.2,0.1,0.3v0.9c0,0.1,0,0.2-0.1,0.3s-0.2,0.1-0.3,0.1h-5.8c-0.1,0-0.2,0-0.3-0.1S12.6,9.2,12.6,9.1z M12.6,12.5v-0.9
		c0-0.1,0-0.2,0.1-0.3c0.1-0.1,0.2-0.1,0.3-0.1h5.8c0.1,0,0.2,0,0.3,0.1c0.1,0.1,0.1,0.2,0.1,0.3v0.9c0,0.1,0,0.2-0.1,0.3
		C19,12.9,18.9,13,18.8,13h-5.8c-0.1,0-0.2,0-0.3-0.1C12.6,12.8,12.6,12.7,12.6,12.5z M12.6,15.9V15c0-0.1,0-0.2,0.1-0.3
		c0.1-0.1,0.2-0.1,0.3-0.1h5.8c0.1,0,0.2,0,0.3,0.1c0.1,0.1,0.1,0.2,0.1,0.3v0.9c0,0.1,0,0.2-0.1,0.3c-0.1,0.1-0.2,0.1-0.3,0.1h-5.8
		c-0.1,0-0.2,0-0.3-0.1C12.6,16.2,12.6,16,12.6,15.9z"/>
	<path d="M8.3,19.3v-0.9c0-0.1,0-0.2,0.1-0.3C8.6,18,8.7,18,8.8,18h1.8c0.1,0,0.2,0,0.3,0.1c0.1,0.1,0.1,0.2,0.1,0.3v0.9
		c0,0.1,0,0.2-0.1,0.3c-0.1,0.1-0.2,0.1-0.3,0.1H8.8c-0.1,0-0.2,0-0.3-0.1C8.4,19.6,8.4,19.5,8.3,19.3z"/>
	<path d="M12.6,19.3v-0.9c0-0.1,0-0.2,0.1-0.3c0.1-0.1,0.2-0.1,0.3-0.1h5.8c0.1,0,0.2,0,0.3,0.1c0.1,0.1,0.1,0.2,0.1,0.3v0.9
		c0,0.1,0,0.2-0.1,0.3s-0.2,0.1-0.3,0.1h-5.8c-0.1,0-0.2,0-0.3-0.1C12.6,19.6,12.6,19.5,12.6,19.3z"/>
	<g>
		<path d="M4.7,20.8H1.9c-0.5,0-0.9-0.4-0.9-0.9v-19C1.1,0.4,1.4,0,1.9,0h14.9c0.5,0,0.9,0.4,0.9,0.9v3.2h-1.5V1.5H2.5v17.9h2.2
			V20.8z"/>
	</g>
</g>
</svg>
