<?xml version="1.0" encoding="utf-8"?>
<!-- Generator: Adobe Illustrator 25.2.1, SVG Export Plug-In . SVG Version: 6.00 Build 0)  -->
<svg version="1.1" id="Layer_1" xmlns="http://www.w3.org/2000/svg" xmlns:xlink="http://www.w3.org/1999/xlink" x="0px" y="0px"
	 viewBox="0 0 24 24" style="enable-background:new 0 0 24 24;" xml:space="preserve">
<g>
	<g>
		<path d="M22.8,0H5.3C4.6,0,4.1,0.5,4.1,1.2v16.4H1.4C0.6,17.6,0,18.2,0,19c0,2.8,2.3,5,5.1,5h0.2h13H19c3,0,5-2.4,5-5.4V1.2
			C24,0.5,23.4,0,22.8,0z M5.3,22.5H5.1c-1.9,0-3.5-1.5-3.6-3.4h12.7c0.1,0,0.2,0,0.3,0.1c0.3,1.4,1.1,2.5,1.8,3.2H5.3z M22.5,18.6
			c0,2.2-1.3,3.9-3.5,3.9h-0.5c-0.5-0.4-2.1-1.7-2.6-3.7c0-0.1-0.1-0.2-0.1-0.3c-0.4-0.5-1-0.8-1.6-0.8H5.6V1.5h16.9V18.6z"/>
	</g>
	<g>
		<path d="M8.3,5.2V4.3c0-0.1,0-0.2,0.1-0.3c0.1-0.1,0.2-0.1,0.3-0.1h1.8c0.1,0,0.2,0,0.3,0.1C10.9,4.1,11,4.2,11,4.3v0.9
			c0,0.1,0,0.2-0.1,0.3c-0.1,0.1-0.2,0.1-0.3,0.1H8.8c-0.1,0-0.2,0-0.3-0.1C8.4,5.4,8.3,5.3,8.3,5.2z M8.3,8.6V7.7
			c0-0.1,0-0.2,0.1-0.3c0.1-0.1,0.2-0.1,0.3-0.1h1.8c0.1,0,0.2,0,0.3,0.1C10.9,7.5,11,7.6,11,7.7v0.9c0,0.1,0,0.2-0.1,0.3
			C10.8,9,10.6,9,10.5,9H8.8C8.6,9,8.5,9,8.4,8.9C8.4,8.8,8.3,8.7,8.3,8.6z M8.3,12v-0.9c0-0.1,0-0.2,0.1-0.3
			c0.1-0.1,0.2-0.1,0.3-0.1h1.8c0.1,0,0.2,0,0.3,0.1c0.1,0.1,0.1,0.2,0.1,0.3V12c0,0.1,0,0.2-0.1,0.3c-0.1,0.1-0.2,0.1-0.3,0.1H8.8
			c-0.1,0-0.2,0-0.3-0.1C8.4,12.2,8.3,12.1,8.3,12z M12.6,5.2V4.3c0-0.1,0-0.2,0.1-0.3s0.2-0.1,0.3-0.1h6c0.1,0,0.2,0,0.3,0.1
			s0.1,0.2,0.1,0.3v0.9c0,0.1,0,0.2-0.1,0.3S19.2,5.6,19,5.6h-6c-0.1,0-0.2,0-0.3-0.1S12.6,5.3,12.6,5.2z M12.6,8.6V7.7
			c0-0.1,0-0.2,0.1-0.3c0.1-0.1,0.2-0.1,0.3-0.1h6c0.1,0,0.2,0,0.3,0.1c0.1,0.1,0.1,0.2,0.1,0.3v0.9c0,0.1,0,0.2-0.1,0.3
			S19.2,9,19,9h-6c-0.1,0-0.2,0-0.3-0.1C12.6,8.8,12.6,8.7,12.6,8.6z M12.6,12v-0.9c0-0.1,0-0.2,0.1-0.3c0.1-0.1,0.2-0.1,0.3-0.1h6
			c0.1,0,0.2,0,0.3,0.1c0.1,0.1,0.1,0.2,0.1,0.3V12c0,0.1,0,0.2-0.1,0.3s-0.2,0.1-0.3,0.1h-6c-0.1,0-0.2,0-0.3-0.1
			S12.6,12.1,12.6,12z"/>
		<path d="M8.3,15.4v-0.9c0-0.1,0-0.2,0.1-0.3C8.5,14.1,8.6,14,8.8,14h1.8c0.1,0,0.2,0,0.3,0.1c0.1,0.1,0.1,0.2,0.1,0.3v0.9
			c0,0.1,0,0.2-0.1,0.3c-0.1,0.1-0.2,0.1-0.3,0.1H8.8c-0.1,0-0.2,0-0.3-0.1C8.4,15.6,8.3,15.5,8.3,15.4z"/>
		<path d="M12.6,15.4v-0.9c0-0.1,0-0.2,0.1-0.3S12.9,14,13,14h6c0.1,0,0.2,0,0.3,0.1c0.1,0.1,0.1,0.2,0.1,0.3v0.9
			c0,0.1,0,0.2-0.1,0.3c-0.1,0.1-0.2,0.1-0.3,0.1h-6c-0.1,0-0.2,0-0.3-0.1C12.6,15.6,12.6,15.5,12.6,15.4z"/>
	</g>
</g>
</svg>
