<?xml version="1.0" encoding="utf-8"?>
<!-- Generator: Adobe Illustrator 25.2.1, SVG Export Plug-In . SVG Version: 6.00 Build 0)  -->
<svg version="1.1" id="Layer_1" xmlns="http://www.w3.org/2000/svg" xmlns:xlink="http://www.w3.org/1999/xlink" x="0px" y="0px"
	 viewBox="0 0 24 24" style="enable-background:new 0 0 24 24;" xml:space="preserve">
<g>
	<path d="M4.5,4.7c0-1.3,0.5-2.4,1.4-3.3S7.9,0,9.2,0s2.4,0.4,3.3,1.4c0.9,0.9,1.4,2.1,1.4,3.3c0,1.3-0.4,2.4-1.4,3.4
		c-0.9,1-2.1,1.4-3.3,1.4C8,9.4,6.8,9,5.9,8.1C4.9,7.2,4.5,6.1,4.5,4.7z"/>
	<path d="M10.6,18.4c0-3.7,2.9-6.8,6.5-7.2c-0.1-0.2-0.1-0.3-0.2-0.5c-0.2-0.4-0.5-0.7-0.8-1c-0.3-0.3-0.6-0.5-1-0.7
		c-0.4-0.2-0.9-0.2-1.4-0.2c-0.1,0-0.3,0.1-0.5,0.3l-0.9,0.6c-0.4,0.2-0.8,0.4-1.3,0.6c-0.5,0.2-1.1,0.2-1.7,0.3
		c-0.6,0-1.1-0.1-1.7-0.3C7,10.2,6.6,10,6.3,9.8C5.9,9.6,5.6,9.4,5.3,9.2C5.1,9,4.9,8.9,4.8,8.9C4.3,8.9,3.9,9,3.5,9.2
		C3,9.3,2.7,9.5,2.4,9.8c-0.3,0.3-0.5,0.6-0.8,1c-0.2,0.4-0.4,0.8-0.5,1.2c-0.1,0.4-0.2,0.9-0.3,1.3c-0.1,0.5-0.1,0.9-0.2,1.3
		c0,0.4,0,0.8,0,1.3c0,1,0.3,1.7,0.9,2.3c0.6,0.6,1.4,0.9,2.4,0.9h6.8C10.6,18.9,10.6,18.7,10.6,18.4z"/>
	<path d="M12.1,18.3c0-1,0.3-2,0.8-2.8c0.5-0.9,1.2-1.6,2.1-2.1c0.9-0.5,1.8-0.8,2.9-0.8s2,0.3,2.8,0.8c0.8,0.5,1.5,1.2,2.1,2.1
		c0.5,0.9,0.8,1.8,0.8,2.8c0,1-0.3,2-0.8,2.8c-0.5,0.9-1.2,1.6-2.1,2.1c-0.9,0.5-1.8,0.8-2.8,0.8c-1,0-2-0.3-2.9-0.8
		c-0.9-0.5-1.6-1.2-2.1-2.1C12.4,20.3,12.1,19.4,12.1,18.3z M13.7,18.3c0,0.7,0.2,1.4,0.5,2c0.4,0.6,0.8,1.1,1.5,1.5
		c0.6,0.4,1.3,0.6,2,0.5c0.7,0,1.4-0.2,2-0.5c0.6-0.4,1.1-0.8,1.5-1.5c0.4-0.6,0.6-1.3,0.5-2c0-0.7-0.2-1.4-0.5-2
		c-0.4-0.6-0.8-1.1-1.5-1.5c-0.6-0.4-1.3-0.5-2-0.5c-0.7,0-1.4,0.2-2,0.5c-0.6,0.4-1.1,0.9-1.5,1.5C13.9,16.9,13.8,17.6,13.7,18.3z
		 M14.6,18.3c0-0.1,0-0.2,0.1-0.3l0.8-0.8c0.1-0.1,0.2-0.1,0.3-0.1c0.1,0,0.2,0,0.3,0.1l1.1,1.1l2-2c0.1-0.1,0.2-0.1,0.3-0.1
		c0.1,0,0.2,0,0.3,0.1l0.7,0.7c0.1,0.1,0.1,0.2,0.1,0.3c0,0.1,0,0.2-0.1,0.3l-3.1,3.1c-0.1,0.1-0.2,0.1-0.3,0.1
		c-0.1,0-0.2,0-0.3-0.1l-2.2-2.2C14.7,18.6,14.6,18.4,14.6,18.3z"/>
</g>
</svg>
