<?xml version="1.0" encoding="utf-8"?>
<!-- Generator: Adobe Illustrator 25.2.1, SVG Export Plug-In . SVG Version: 6.00 Build 0)  -->
<svg version="1.1" id="Layer_1" xmlns="http://www.w3.org/2000/svg" xmlns:xlink="http://www.w3.org/1999/xlink" x="0px" y="0px"
	 viewBox="0 0 24 24" style="enable-background:new 0 0 24 24;" xml:space="preserve">
<g>
	<g>
		<path d="M7.9,14.5c0-0.2,0-0.4,0-0.6c0-0.2,0-0.4,0.1-0.6c0-0.2,0.1-0.4,0.2-0.6c0.1-0.2,0.1-0.4,0.2-0.6c0.1-0.2,0.2-0.4,0.4-0.5
			c0.1-0.1,0.3-0.2,0.5-0.3c0.2-0.1,0.4-0.1,0.6-0.1c0,0,0.1,0,0.2,0.1c0.1,0.1,0.3,0.2,0.4,0.3c0.2,0.1,0.4,0.2,0.6,0.3
			c0.3,0.1,0.5,0.1,0.8,0.1s0.5,0,0.8-0.1c0.3-0.1,0.5-0.2,0.6-0.3c0.2-0.1,0.3-0.2,0.4-0.3c0.1-0.1,0.2-0.1,0.2-0.1
			c0.2,0,0.5,0,0.6,0.1c0.2,0.1,0.4,0.2,0.5,0.3c0.1,0.1,0.3,0.3,0.4,0.5c0.1,0.2,0.2,0.4,0.2,0.6c0.1,0.2,0.1,0.4,0.2,0.6
			c0,0.2,0.1,0.4,0.1,0.6c0,0.2,0,0.4,0,0.6c0,0.5-0.1,0.8-0.4,1.1C15.4,15.8,15,16,14.5,16H9.5c-0.5,0-0.8-0.1-1.1-0.4
			C8.1,15.3,7.9,14.9,7.9,14.5z"/>
		<path d="M9.8,9c0-0.6,0.2-1.1,0.6-1.6c0.4-0.4,1-0.7,1.6-0.7c0.6,0,1.1,0.2,1.6,0.7c0.4,0.4,0.6,1,0.7,1.6c0,0.6-0.2,1.1-0.7,1.6
			c-0.5,0.4-1,0.6-1.6,0.7c-0.6,0-1.1-0.2-1.6-0.7C10,10.2,9.7,9.6,9.8,9z"/>
	</g>
	<path d="M23.9,9.9c-0.1-0.1-0.2-0.2-0.3-0.2l-2.9-0.4c-0.2-0.5-0.4-1-0.6-1.5l1.7-2.2c0.1-0.1,0.1-0.2,0.1-0.4c0-0.1,0-0.2-0.1-0.3
		c-0.4-0.5-1.2-1.4-2.6-2.7c-0.1-0.1-0.3-0.1-0.4-0.1s-0.3,0-0.3,0.1l-2.2,1.7c-0.4-0.2-0.9-0.4-1.4-0.6l-0.4-2.9
		c0-0.1-0.1-0.3-0.2-0.3C14,0,13.9,0,13.7,0h-3.5C10,0,9.8,0.1,9.7,0.4C9.6,0.9,9.4,1.9,9.2,3.3c-0.5,0.2-1,0.3-1.4,0.6L5.7,2.2
		C5.5,2.1,5.4,2.1,5.3,2.1C5,2.1,4.5,2.5,3.8,3.2C3,4,2.5,4.5,2.2,4.9C2.1,5,2.1,5.2,2.1,5.3c0,0.1,0.1,0.2,0.2,0.4
		C3,6.5,3.5,7.2,3.9,7.8c-0.3,0.5-0.5,1-0.6,1.4L0.4,9.7c-0.1,0-0.2,0.1-0.3,0.2C0,10,0,10.1,0,10.2v3.5c0,0.1,0.1,0.3,0.1,0.4
		c0.1,0.1,0.2,0.2,0.3,0.2l2.9,0.4c0.1,0.5,0.4,1,0.6,1.5c-0.2,0.3-0.5,0.7-0.8,1.1c-0.4,0.5-0.6,0.8-0.8,1
		c-0.1,0.1-0.1,0.2-0.1,0.4c0,0.1,0,0.2,0.1,0.3c0.4,0.6,1.3,1.5,2.6,2.6c0.1,0.1,0.2,0.2,0.4,0.2s0.3,0,0.4-0.1l2.2-1.7
		c0.4,0.2,0.9,0.4,1.4,0.6l0.4,2.9c0,0.1,0.1,0.2,0.2,0.3C10,24,10.1,24,10.3,24h3.5c0.3,0,0.5-0.2,0.6-0.4c0.1-0.5,0.3-1.5,0.4-2.9
		c0.5-0.1,1-0.3,1.4-0.6l2.2,1.7c0.1,0.1,0.3,0.1,0.4,0.1c0.2,0,0.7-0.3,1.5-1.1c0.7-0.7,1.3-1.3,1.5-1.7c0.1-0.1,0.1-0.2,0.1-0.3
		c0-0.1-0.1-0.3-0.2-0.4c-0.7-0.9-1.3-1.6-1.7-2.2c0.2-0.4,0.4-0.9,0.6-1.4l2.9-0.4c0.1,0,0.2-0.1,0.3-0.2C24,14,24,13.9,24,13.8
		v-3.5C24,10.1,24,10,23.9,9.9z M12,19c-3.9,0-7-3.1-7-7s3.1-7,7-7s7,3.1,7,7S15.9,19,12,19z"/>
</g>
</svg>
