<?xml version="1.0" encoding="utf-8"?>
<!-- Generator: Adobe Illustrator 25.2.1, SVG Export Plug-In . SVG Version: 6.00 Build 0)  -->
<svg version="1.1" id="Layer_1" xmlns="http://www.w3.org/2000/svg" xmlns:xlink="http://www.w3.org/1999/xlink" x="0px" y="0px"
	 viewBox="0 0 24 24" style="enable-background:new 0 0 24 24;" xml:space="preserve">
<g>
	<g>
		<circle cx="12.1" cy="5.3" r="2.8"/>
		<circle cx="12.1" cy="12" r="2.8"/>
		<circle cx="12.1" cy="18.7" r="2.8"/>
	</g>
	<g>
		<path d="M15.7,24H8.5c-1.5,0-2.7-1.2-2.7-2.7V2.7C5.8,1.2,7,0,8.5,0h7.1c1.5,0,2.7,1.2,2.7,2.7v18.6C18.4,22.8,17.2,24,15.7,24z
			 M8.5,1.4C7.8,1.4,7.2,2,7.2,2.7v18.6c0,0.7,0.6,1.3,1.3,1.3h7.1c0.7,0,1.3-0.6,1.3-1.3V2.7c0-0.7-0.6-1.3-1.3-1.3
			C15.6,1.4,8.5,1.4,8.5,1.4z"/>
	</g>
	<g>
		<path d="M2,2.7h3.8v4.2L1.7,3.6C1.3,3.3,1.5,2.7,2,2.7z"/>
		<path d="M2,9.4h3.8v4.2l-4.1-3.2C1.3,10,1.5,9.4,2,9.4z"/>
		<path d="M2,16.1h3.8v4.2L1.7,17C1.3,16.7,1.5,16.1,2,16.1z"/>
	</g>
	<g>
		<path d="M22,2.7h-3.8v4.2l4.1-3.2C22.7,3.3,22.5,2.7,22,2.7z"/>
		<path d="M22,9.4h-3.8v4.2l4.1-3.2C22.7,10,22.5,9.4,22,9.4z"/>
		<path d="M22,16.1h-3.8v4.2l4.1-3.2C22.7,16.7,22.5,16.1,22,16.1z"/>
	</g>
	<circle cx="12.1" cy="5.3" r="2.8"/>
</g>
</svg>
