<?xml version="1.0" encoding="utf-8"?>
<!-- Generator: Adobe Illustrator 25.2.1, SVG Export Plug-In . SVG Version: 6.00 Build 0)  -->
<svg version="1.1" id="Layer_1" xmlns="http://www.w3.org/2000/svg" xmlns:xlink="http://www.w3.org/1999/xlink" x="0px" y="0px"
	 viewBox="0 0 24 24" style="enable-background:new 0 0 24 24;" xml:space="preserve">
<style type="text/css">
	.st0{fill:#008C00;}
</style>
<g>
	<g>
		<path class="st0" d="M3.2,8.8v9.6H2.5c-0.2,0-0.4,0.1-0.6,0.2c-0.2,0.2-0.3,0.4-0.3,0.6V20h20.8v-0.8c0-0.2-0.1-0.4-0.2-0.6
			c-0.2-0.1-0.4-0.2-0.6-0.2h-0.7V8.8h-3.2v9.6H16v-4.2c-0.8,0.9-1.9,1.5-3.2,1.7v2.5h-1.6v-2.5c-1.3-0.2-2.4-0.8-3.2-1.7v4.2H6.4
			V8.8H3.2z"/>
		<path class="st0" d="M23.1,20.8H0.9c-0.3,0-0.5,0.1-0.6,0.2S0,21.4,0,21.6v1.6h24v-1.6c0-0.2-0.1-0.4-0.2-0.6
			C23.6,20.9,23.4,20.8,23.1,20.8z"/>
		<path class="st0" d="M12,0.8L0,5.6v1.6h1.6c0,0.2,0.1,0.4,0.3,0.6C2,7.9,2.2,8,2.5,8h4.7C8.1,6.2,9.9,5.1,12,5.1s3.9,1.2,4.8,2.9
			h4.7c0.3,0,0.5-0.1,0.6-0.2c0.2-0.2,0.2-0.4,0.2-0.6H24V5.6L12,0.8z"/>
	</g>
	<circle class="st0" cx="12" cy="10.5" r="4.1"/>
</g>
</svg>
