<?xml version="1.0" encoding="utf-8"?>
<!-- Generator: Adobe Illustrator 25.2.1, SVG Export Plug-In . SVG Version: 6.00 Build 0)  -->
<svg version="1.1" id="Layer_1" xmlns="http://www.w3.org/2000/svg" xmlns:xlink="http://www.w3.org/1999/xlink" x="0px" y="0px"
	 viewBox="0 0 24 24" style="enable-background:new 0 0 24 24;" xml:space="preserve">
<g>
	<path d="M0,9.2c0-2.5,0.4-3.7,1.3-3.7c0.1,0,0.2,0.1,0.5,0.2C2,5.8,2.4,6,2.8,6.1C3.2,6.3,3.6,6.4,4,6.4c0.5,0,0.9-0.1,1.4-0.2
		c0,0.3-0.1,0.5-0.1,0.7c0,1,0.3,1.9,0.8,2.7c-1.1,0-2.1,0.5-2.8,1.4H2c-0.6,0-1.1-0.1-1.5-0.4C0.2,10.1,0,9.7,0,9.2z"/>
	<path d="M1.3,2.8c0-0.7,0.3-1.4,0.8-1.9C2.7,0.3,3.3,0.1,4,0.1c0.7,0,1.4,0.3,1.9,0.8C6.5,1.4,6.7,2,6.7,2.8S6.5,4.1,5.9,4.7
		S4.8,5.5,4,5.5c-0.7,0-1.4-0.3-1.9-0.8S1.3,3.5,1.3,2.8z"/>
	<path d="M6.3,6.8c0-1.1,0.4-2.1,1.2-2.8s1.7-1.2,2.9-1.2c1.1,0,2.1,0.4,2.8,1.2c0.8,0.8,1.2,1.8,1.2,2.8c0,1.1-0.4,2.1-1.2,2.9
		c-0.8,0.8-1.8,1.2-2.8,1.2c-1.1,0-2-0.4-2.9-1.2C6.6,8.9,6.2,7.9,6.3,6.8z"/>
	<path d="M13.9,2.8c0-0.7,0.3-1.4,0.8-1.9c0.5-0.5,1.2-0.8,1.9-0.8c0.7,0,1.4,0.3,1.9,0.8C19,1.4,19.3,2,19.3,2.8S19,4.1,18.5,4.7
		c-0.5,0.5-1.2,0.8-1.9,0.8c-0.7,0-1.4-0.3-1.9-0.8C14.2,4.1,13.9,3.5,13.9,2.8z"/>
	<path d="M14.4,9.5c0.6-0.8,0.8-1.7,0.8-2.7c0-0.2,0-0.4-0.1-0.7c0.5,0.2,0.9,0.2,1.4,0.2c0.4,0,0.8-0.1,1.3-0.2
		c0.4-0.2,0.8-0.3,1-0.5c0.3-0.2,0.4-0.2,0.5-0.2c0.9,0,1.3,1.2,1.3,3.7c0,0.5-0.2,1-0.6,1.2c-0.4,0.3-0.9,0.4-1.5,0.4h-1.4
		C16.5,10,15.5,9.5,14.4,9.5z"/>
	<path d="M11.1,18.2c0-3.3,2.3-6,5.3-6.7c-0.1-0.1-0.2-0.2-0.2-0.3c-0.2-0.2-0.5-0.4-0.9-0.6c-0.4-0.1-0.7-0.2-1.2-0.2
		c-0.1,0-0.2,0.1-0.4,0.2l-0.8,0.5c-0.3,0.2-0.7,0.4-1.1,0.5c-0.4,0.1-0.9,0.2-1.4,0.2c-0.5,0-1-0.1-1.4-0.2
		c-0.5-0.2-0.8-0.3-1.1-0.5c-0.3-0.2-0.5-0.3-0.8-0.5c-0.2-0.2-0.4-0.2-0.5-0.2c-0.4,0-0.8,0.1-1.2,0.2c-0.4,0.1-0.7,0.3-0.9,0.6
		C4.2,11.4,4,11.7,3.8,12c-0.2,0.3-0.4,0.7-0.5,1c-0.1,0.4-0.2,0.7-0.3,1.2C3,14.6,3,15,2.9,15.3c0,0.4,0,0.7,0,1.1
		c0,0.8,0.3,1.5,0.8,2c0.5,0.5,1.2,0.7,2,0.7h5.5C11.1,18.8,11.1,18.5,11.1,18.2z"/>
	<path d="M12.5,18.2c0-1,0.3-2,0.8-2.9c0.5-0.9,1.2-1.6,2.1-2.1c0.9-0.5,1.8-0.8,2.9-0.8s2,0.3,2.9,0.8c0.9,0.5,1.6,1.2,2.1,2.1
		c0.5,0.9,0.8,1.8,0.8,2.9c0,1-0.3,2-0.8,2.9c-0.5,0.9-1.2,1.6-2.1,2.1s-1.9,0.8-2.9,0.8c-1,0-2-0.3-2.9-0.8
		c-0.9-0.5-1.6-1.2-2.1-2.1C12.8,20.2,12.6,19.2,12.5,18.2z M14.2,18.2c0,0.7,0.2,1.4,0.5,2c0.4,0.6,0.9,1.1,1.5,1.5
		c0.6,0.4,1.3,0.6,2,0.5c0.7,0,1.4-0.2,2-0.5c0.6-0.4,1.1-0.9,1.5-1.5c0.4-0.6,0.6-1.3,0.5-2c0-0.7-0.2-1.4-0.5-2
		c-0.4-0.6-0.8-1.1-1.5-1.5c-0.6-0.4-1.3-0.5-2-0.5c-0.7,0-1.4,0.2-2,0.5c-0.6,0.4-1.1,0.9-1.5,1.5C14.4,16.8,14.2,17.5,14.2,18.2z
		 M15.1,18.2c0-0.1,0-0.2,0.1-0.3l0.8-0.8c0.1-0.1,0.2-0.1,0.3-0.1c0.1,0,0.2,0,0.3,0.1l1.1,1.1l2-2C19.9,16,20,16,20.2,16
		c0.1,0,0.2,0,0.3,0.1l0.7,0.7c0.1,0.1,0.1,0.2,0.1,0.3c0,0.1,0,0.2-0.1,0.3l-3.1,3.1c-0.1,0.1-0.2,0.1-0.3,0.1
		c-0.1,0-0.2,0-0.3-0.1l-2.2-2.2C15.2,18.4,15.1,18.3,15.1,18.2z"/>
</g>
</svg>
