<?xml version="1.0" encoding="utf-8"?>
<!-- Generator: Adobe Illustrator 25.2.1, SVG Export Plug-In . SVG Version: 6.00 Build 0)  -->
<svg version="1.1" id="Layer_1" xmlns="http://www.w3.org/2000/svg" xmlns:xlink="http://www.w3.org/1999/xlink" x="0px" y="0px"
	 viewBox="0 0 24 24" style="enable-background:new 0 0 24 24;" xml:space="preserve">
<g>
	<g>
		<path d="M9.5,1.5v8h-8v-8H9.5 M9.6,0H1.4C0.6,0,0,0.6,0,1.4v8.1C0,10.4,0.6,11,1.4,11h8.1c0.8,0,1.4-0.6,1.4-1.4V1.4
			C11,0.6,10.4,0,9.6,0L9.6,0z"/>
	</g>
	<g>
		<path d="M22.5,1.5v8h-8v-8H22.5 M22.6,0h-8.1C13.6,0,13,0.6,13,1.4v8.1c0,0.8,0.6,1.4,1.4,1.4h8.1c0.8,0,1.4-0.6,1.4-1.4V1.4
			C24,0.6,23.4,0,22.6,0L22.6,0z"/>
	</g>
	<g>
		<path d="M9.5,14.5v8h-8v-8H9.5 M9.6,13H1.4C0.6,13,0,13.6,0,14.4v8.1C0,23.4,0.6,24,1.4,24h8.1c0.8,0,1.4-0.6,1.4-1.4v-8.1
			C11,13.6,10.4,13,9.6,13L9.6,13z"/>
	</g>
	<g>
		<path d="M22.5,14.5v8h-8v-8H22.5 M22.6,13h-8.1c-0.8,0-1.4,0.6-1.4,1.4v8.1c0,0.8,0.6,1.4,1.4,1.4h8.1c0.8,0,1.4-0.6,1.4-1.4v-8.1
			C24,13.6,23.4,13,22.6,13L22.6,13z"/>
	</g>
</g>
</svg>
