<?xml version="1.0" encoding="utf-8"?>
<!-- Generator: Adobe Illustrator 25.2.1, SVG Export Plug-In . SVG Version: 6.00 Build 0)  -->
<svg version="1.1" id="Layer_1" xmlns="http://www.w3.org/2000/svg" xmlns:xlink="http://www.w3.org/1999/xlink" x="0px" y="0px"
	 viewBox="0 0 24 24" style="enable-background:new 0 0 24 24;" xml:space="preserve">
<g>
	<path d="M0.7,11.5c0-2.7,0.5-4.1,1.4-4.1c0.1,0,0.2,0.1,0.5,0.2C2.9,7.8,3.3,8,3.8,8.2c0.5,0.2,0.9,0.3,1.4,0.2
		c0.5,0,1-0.1,1.6-0.3c0,0.3-0.1,0.5-0.1,0.8c0,1.1,0.3,2.1,0.9,3c-1.2,0-2.3,0.5-3.1,1.5H2.9c-0.6,0-1.2-0.2-1.6-0.5
		C0.9,12.6,0.7,12.1,0.7,11.5z"/>
	<path d="M2.2,4.5C2.2,3.7,2.5,3,3,2.4c0.6-0.6,1.3-0.9,2.1-0.9c0.8,0,1.5,0.3,2.1,0.9C7.8,3,8.1,3.7,8.1,4.5S7.8,6,7.2,6.6
		S5.9,7.5,5.1,7.5C4.3,7.5,3.6,7.2,3,6.6S2.2,5.3,2.2,4.5z"/>
	<path d="M3.9,19.5c0-0.4,0-0.8,0-1.2C4,17.9,4,17.5,4.1,17c0.1-0.5,0.2-0.9,0.3-1.3c0.1-0.4,0.3-0.8,0.5-1.1
		c0.2-0.4,0.5-0.7,0.7-0.9c0.3-0.3,0.6-0.5,1-0.6c0.4-0.2,0.8-0.2,1.3-0.2c0.1,0,0.2,0.1,0.5,0.2c0.2,0.2,0.5,0.3,0.8,0.5
		c0.3,0.2,0.7,0.4,1.2,0.6c0.5,0.2,1,0.3,1.6,0.2c0.6,0,1.1-0.1,1.6-0.2c0.5-0.2,0.9-0.3,1.2-0.6l0.8-0.5c0.2-0.1,0.4-0.2,0.5-0.2
		c0.5,0,0.9,0.1,1.3,0.2c0.4,0.2,0.7,0.4,1,0.6s0.5,0.6,0.7,0.9s0.4,0.7,0.5,1.1c0.1,0.4,0.2,0.8,0.3,1.3c0.1,0.5,0.2,0.9,0.2,1.3
		l0,1.2c0,0.9-0.3,1.6-0.8,2.2c-0.6,0.5-1.3,0.8-2.2,0.8H7c-0.9,0-1.7-0.3-2.2-0.8C4.2,21.1,3.9,20.4,3.9,19.5z"/>
	<path d="M7.6,8.9c0-1.2,0.4-2.3,1.3-3.1c0.9-0.9,1.9-1.3,3.1-1.3c1.2,0,2.3,0.4,3.1,1.3c0.9,0.9,1.3,1.9,1.3,3.1
		c0,1.2-0.4,2.2-1.3,3.1c-0.9,0.9-1.9,1.3-3.1,1.3c-1.2,0-2.2-0.5-3.1-1.3C8,11.2,7.5,10.2,7.6,8.9z"/>
	<path d="M15.9,4.5c0-0.8,0.3-1.5,0.9-2.1c0.6-0.6,1.3-0.9,2.1-0.9s1.5,0.3,2.1,0.9c0.6,0.6,0.9,1.3,0.9,2.1S21.6,6,21,6.6
		c-0.6,0.6-1.3,0.9-2.1,0.9s-1.5-0.3-2.1-0.9S15.9,5.3,15.9,4.5z"/>
	<path d="M16.5,11.9c0.6-0.9,0.9-1.9,0.9-3c0-0.2,0-0.5-0.1-0.8c0.5,0.2,1,0.3,1.5,0.3c0.5,0,0.9-0.1,1.4-0.2
		c0.5-0.2,0.8-0.3,1.1-0.5c0.3-0.2,0.4-0.2,0.5-0.2c1,0,1.4,1.4,1.4,4.1c0,0.6-0.2,1-0.6,1.4c-0.4,0.3-1,0.5-1.6,0.5h-1.6
		C18.7,12.4,17.7,11.9,16.5,11.9z"/>
</g>
</svg>
