<?xml version="1.0" encoding="utf-8"?>
<!-- Generator: Adobe Illustrator 25.2.1, SVG Export Plug-In . SVG Version: 6.00 Build 0)  -->
<svg version="1.1" id="Layer_1" xmlns="http://www.w3.org/2000/svg" xmlns:xlink="http://www.w3.org/1999/xlink" x="0px" y="0px"
	 viewBox="0 0 24 24" style="enable-background:new 0 0 24 24;" xml:space="preserve">
<g>
	<path d="M3.7,5.8V4.9c0-0.1,0-0.2,0.1-0.3S4,4.4,4.1,4.4h3.5c0.1,0,0.2,0,0.3,0.1c0.1,0.1,0.1,0.2,0.1,0.3v0.9c0,0.1,0,0.2-0.1,0.3
		C7.9,6.3,7.8,6.3,7.7,6.3H4.1c-0.1,0-0.2,0-0.3-0.1S3.7,6,3.7,5.8z M3.7,9.3V8.4c0-0.1,0-0.2,0.1-0.3C3.9,8,4,7.9,4.1,7.9h3.5
		c0.1,0,0.2,0,0.3,0.1c0.1,0.1,0.1,0.2,0.1,0.3v0.9c0,0.1,0,0.2-0.1,0.3C7.9,9.8,7.8,9.8,7.7,9.8H4.1c-0.1,0-0.2,0-0.3-0.1
		C3.7,9.6,3.7,9.5,3.7,9.3z M3.7,12.8v-0.9c0-0.1,0-0.2,0.1-0.3c0.1-0.1,0.2-0.1,0.3-0.1h3.5c0.1,0,0.2,0,0.3,0.1
		c0.1,0.1,0.1,0.2,0.1,0.3v0.9c0,0.1,0,0.2-0.1,0.3c-0.1,0.1-0.2,0.1-0.3,0.1H4.1c-0.1,0-0.2,0-0.3-0.1S3.7,12.9,3.7,12.8z M9.8,5.8
		V4.9c0-0.1,0-0.2,0.1-0.3c0.1-0.1,0.2-0.1,0.3-0.1h9.6c0.1,0,0.2,0,0.3,0.1s0.1,0.2,0.1,0.3v0.9c0,0.1,0,0.2-0.1,0.3
		S20,6.3,19.9,6.3h-9.6c-0.1,0-0.2,0-0.3-0.1C9.8,6.1,9.8,6,9.8,5.8z M9.8,9.3V8.4c0-0.1,0-0.2,0.1-0.3C10,8,10.1,7.9,10.2,7.9h9.6
		c0.1,0,0.2,0,0.3,0.1c0.1,0.1,0.1,0.2,0.1,0.3v0.9c0,0.1,0,0.2-0.1,0.3c-0.1,0.1-0.2,0.1-0.3,0.1h-9.6c-0.1,0-0.2,0-0.3-0.1
		C9.8,9.6,9.8,9.5,9.8,9.3z M9.8,12.8v-0.9c0-0.1,0-0.2,0.1-0.3c0.1-0.1,0.2-0.1,0.3-0.1h9.6c0.1,0,0.2,0,0.3,0.1
		c0.1,0.1,0.1,0.2,0.1,0.3v0.9c0,0.1,0,0.2-0.1,0.3s-0.2,0.1-0.3,0.1h-9.6c-0.1,0-0.2,0-0.3-0.1C9.8,13,9.8,12.9,9.8,12.8z"/>
	<path d="M23.4,1.2C23,0.8,22.6,0.6,22,0.6H2c-0.6,0-1,0.2-1.4,0.6C0.2,1.6,0,2,0,2.6v15.6c0,0.5,0.2,1,0.6,1.4
		C1,20,1.5,20.2,2,20.2h6.8c0,0.3-0.1,0.6-0.2,1c-0.1,0.3-0.3,0.6-0.4,0.9C8.1,22.3,8,22.5,8,22.6c0,0.2,0.1,0.4,0.2,0.6
		c0.1,0.2,0.3,0.2,0.6,0.2h6.4c0.2,0,0.4-0.1,0.6-0.2s0.2-0.4,0.2-0.6c0-0.1-0.1-0.3-0.2-0.5c-0.1-0.3-0.2-0.6-0.4-0.9
		c-0.1-0.3-0.2-0.7-0.2-1H22c0.6,0,1-0.2,1.4-0.6c0.4-0.4,0.6-0.9,0.6-1.4V2.6C24,2,23.8,1.6,23.4,1.2z M20.9,18.7c-0.6,0-1-0.4-1-1
		c0-0.6,0.4-1,1-1s1,0.4,1,1C21.9,18.3,21.4,18.7,20.9,18.7z M22.4,15c0,0.1,0,0.2-0.1,0.3c-0.1,0.1-0.2,0.1-0.3,0.1H2
		c-0.1,0-0.2,0-0.3-0.1c-0.1-0.1-0.1-0.2-0.1-0.3V2.6c0-0.1,0.1-0.2,0.1-0.3C1.8,2.2,1.9,2.2,2,2.2h20c0.1,0,0.2,0.1,0.3,0.1
		c0.1,0.1,0.1,0.2,0.1,0.3V15z"/>
</g>
</svg>
